<svg width="500" height="500" viewBox="0 0 500 500" fill="none" xmlns="http://www.w3.org/2000/svg">
<rect width="500" height="500" rx="50" fill="#1E1E1E"/>
<path d="M256.76 419.12C221.944 419.12 191.907 414.853 166.648 406.32C141.389 397.445 121.933 383.963 108.28 365.872C94.6267 347.44 87.8 323.717 87.8 294.704V291.632H184.056V302.384C184.056 309.893 185.592 315.867 188.664 320.304C192.077 324.4 198.904 327.301 209.144 329.008C219.384 330.715 235.256 331.568 256.76 331.568C276.216 331.568 290.552 331.056 299.768 330.032C308.984 328.667 314.787 326.619 317.176 323.888C319.907 320.816 321.272 316.72 321.272 311.6C321.272 305.456 318.883 300.848 314.104 297.776C309.667 294.704 300.451 292.315 286.456 290.608L178.936 276.272C157.773 273.2 140.024 267.568 125.688 259.376C111.352 250.843 100.6 239.749 93.432 226.096C86.264 212.443 82.68 196.4 82.68 177.968C82.68 164.315 85.5813 150.832 91.384 137.52C97.1867 124.208 106.573 112.261 119.544 101.68C132.515 90.7573 149.581 82.0533 170.744 75.568C191.907 69.0827 218.019 65.84 249.08 65.84C285.603 65.84 315.64 70.96 339.192 81.2C363.085 91.0986 380.835 105.435 392.44 124.208C404.387 142.64 410.36 164.656 410.36 190.256V193.328H314.104V185.648C314.104 177.456 312.227 170.971 308.472 166.192C305.059 161.413 297.891 158 286.968 155.952C276.387 153.904 260.344 152.88 238.84 152.88C222.456 152.88 209.997 153.733 201.464 155.44C192.931 156.805 186.957 159.024 183.544 162.096C180.472 165.168 178.936 169.264 178.936 174.384C178.936 177.797 179.619 180.869 180.984 183.6C182.691 185.989 185.251 187.867 188.664 189.232C192.419 190.597 197.368 191.792 203.512 192.816L311.032 208.688C339.021 212.784 360.696 219.952 376.056 230.192C391.416 240.091 402.168 251.867 408.312 265.52C414.456 279.173 417.528 293.339 417.528 308.016C417.528 327.472 412.067 345.733 401.144 362.8C390.563 379.525 373.496 393.179 349.944 403.76C326.392 414 295.331 419.12 256.76 419.12Z" fill="white"/>
</svg>
